
<svg xmlns="http://www.w3.org/2000/svg" version="1.1" xmlns:xlink="http://www.w3.org/1999/xlink" preserveAspectRatio="none" x="0px" y="0px" width="100px" height="100px" viewBox="0 0 100 100">
<defs>
<g id="Layer0_0_FILL">
<path fill="#339933" stroke="none" d="
M 12.8 75
L 0 75 0 100 25 100 25 87.2
Q 24.9 82.2 21.35 78.65 17.8 75.1 12.8 75
M 71.35 28.65
Q 74.9 32.2 75 37.2
L 75 100 100 100 100 0 0 0 0 25 62.8 25
Q 67.8 25.1 71.35 28.65 Z"/>

<path fill="#663300" stroke="none" d="
M 75 37.2
Q 74.9 32.2 71.35 28.65 67.8 25.1 62.8 25
L 0 25 0 75 12.8 75
Q 17.8 75.1 21.35 78.65 24.9 82.2 25 87.2
L 25 100 75 100 75 37.2 Z"/>
</g>

<path id="Layer0_0_1_STROKES" stroke="#000000" stroke-width="1" stroke-linejoin="round" stroke-linecap="round" fill="none" d="
M 0 25
L 62.8 25
Q 67.8 25.1 71.35 28.65 74.9 32.2 75 37.2
L 75 100 100 100 100 0 0 0 0 25 0 75 12.8 75
Q 17.8 75.1 21.35 78.65 24.9 82.2 25 87.2
L 25 100 75 100
M 25 100
L 0 100 0 75"/>
</defs>

<g transform="matrix( 1, 0, 0, 1, 0,0) ">
<use xlink:href="#Layer0_0_FILL"/>

<use xlink:href="#Layer0_0_1_STROKES"/>
</g>
</svg>
