
<svg xmlns="http://www.w3.org/2000/svg" version="1.1" xmlns:xlink="http://www.w3.org/1999/xlink" preserveAspectRatio="none" x="0px" y="0px" width="100px" height="100px" viewBox="0 0 100 100">
<defs>
<g id="Layer0_0_FILL">
<path fill="#663300" stroke="none" d="
M 28.65 71.35
Q 32.2 74.9 37.15 75
L 62.8 75
Q 67.8 74.9 71.35 71.35 74.9 67.8 75 62.8
L 75 0 25 0 25 62.8
Q 25.1 67.8 28.65 71.35 Z"/>

<path fill="#339933" stroke="none" d="
M 25 0
L 0 0 0 100 100 100 100 0 75 0 75 62.8
Q 74.9 67.8 71.35 71.35 67.8 74.9 62.8 75
L 37.15 75
Q 32.2 74.9 28.65 71.35 25.1 67.8 25 62.8
L 25 0 Z"/>
</g>

<path id="Layer0_0_1_STROKES" stroke="#000000" stroke-width="1" stroke-linejoin="round" stroke-linecap="round" fill="none" d="
M 75 0
L 100 0 100 100 0 100 0 0 25 0 75 0 75 62.8
Q 74.9 67.8 71.35 71.35 67.8 74.9 62.8 75
L 37.15 75
Q 32.2 74.9 28.65 71.35 25.1 67.8 25 62.8
L 25 0"/>
</defs>

<g transform="matrix( 1, 0, 0, 1, 0,0) ">
<use xlink:href="#Layer0_0_FILL"/>

<use xlink:href="#Layer0_0_1_STROKES"/>
</g>
</svg>
