
<svg xmlns="http://www.w3.org/2000/svg" version="1.1" xmlns:xlink="http://www.w3.org/1999/xlink" preserveAspectRatio="none" x="0px" y="0px" width="100px" height="100px" viewBox="0 0 100 100">
<defs>
<g id="Layer0_0_FILL">
<path fill="#339933" stroke="none" d="
M 100 100
L 100 0 75 0 75 100 100 100
M 25 0
L 0 0 0 100 25 100 25 0 Z"/>

<path fill="#663300" stroke="none" d="
M 75 0
L 25 0 25 100 75 100 75 0 Z"/>
</g>

<path id="Layer0_0_1_STROKES" stroke="#000000" stroke-width="1" stroke-linejoin="round" stroke-linecap="round" fill="none" d="
M 25 100
L 0 100 0 0 25 0 75 0 100 0 100 100 75 100 25 100 25 0
M 75 100
L 75 0"/>
</defs>

<g transform="matrix( 1, 0, 0, 1, 0,0) ">
<use xlink:href="#Layer0_0_FILL"/>

<use xlink:href="#Layer0_0_1_STROKES"/>
</g>
</svg>
